<svg width="49" height="36" viewBox="0 0 49 36" fill="none" xmlns="http://www.w3.org/2000/svg">
<path d="M42.4971 0H14.3626C11.6906 0 9.56871 1.57792 9.56871 3.56494V6.37013C9.56871 8.00649 10.9833 9.35065 13.0266 9.75974V12.0974C13.0266 12.6818 13.6553 13.1494 14.4412 13.1494C15.227 13.1494 15.8558 12.6818 15.8558 12.0974V9.93507H31.9663C33.0665 9.93507 34.0096 10.6364 34.0096 11.4545V24.5455C34.0096 25.3636 33.0665 26.0649 31.9663 26.0649H19.235C21.3569 24.8377 22.6929 22.9091 22.6929 20.8052C22.6929 20.2208 22.0642 19.7532 21.2783 19.7532H5.95366C5.16778 19.7532 4.53907 20.2208 4.53907 20.8052C4.53907 22.9091 5.87507 24.8377 7.99695 26.0649H6.03225C3.36025 26.0649 1.23837 27.6429 1.23837 29.6299V32.4351C1.23837 34.4221 3.36025 36 6.03225 36H42.4185C45.0905 36 47.2124 34.4221 47.2124 32.4351V3.56494C47.291 1.63636 45.0905 0 42.4971 0ZM19.7066 21.7987C19.0779 23.9026 16.563 25.4221 13.5767 25.4221C10.5904 25.4221 8.07553 23.8442 7.44683 21.7987H19.7066ZM44.5404 32.4351C44.5404 33.2532 43.5973 33.9545 42.4971 33.9545H6.03225C4.93201 33.9545 3.98896 33.2532 3.98896 32.4351V29.6299C3.98896 28.8117 4.93201 28.1104 6.03225 28.1104H31.8091C34.4811 28.1104 36.603 26.5325 36.603 24.5455V11.4545C36.603 9.46753 34.4811 7.88961 31.8091 7.88961H14.3626C13.2623 7.88961 12.3193 7.18831 12.3193 6.37013V3.56494C12.3193 2.74675 13.2623 2.04545 14.3626 2.04545H42.4185C43.5187 2.04545 44.4618 2.74675 44.4618 3.56494V32.4351H44.5404Z" fill="#52503B"/>
</svg>
