<svg width="49" height="36" viewBox="0 0 49 36" fill="none" xmlns="http://www.w3.org/2000/svg">
<g clip-path="url(#clip0_1_118)">
<path d="M45.0589 9C47.0838 9 48.7972 10.26 48.7972 11.82V24.12C48.7972 25.74 47.0838 27 45.0589 27H4.56052C2.5356 27 0.900086 25.74 0.822205 24.24V11.88C0.822205 10.26 2.5356 9 4.56052 9H45.0589ZM23.4857 21.24H14.9188V24.9H23.4857V21.24ZM34.7785 21.24H26.2116V24.9H34.7785V21.24ZM12.1929 21.24H3.62594V24.18C3.62594 24.6 4.01535 24.9 4.56052 24.9H12.1929V21.24ZM45.9935 21.24H37.4265V24.9H45.0589C45.6041 24.9 46.0714 24.6 45.9935 24.18V21.24ZM45.0589 11.1H4.56052C4.01535 11.1 3.62594 11.4 3.62594 11.82V19.2H46.0714V11.88C46.0714 11.46 45.6041 11.1 45.0589 11.1ZM40.4639 13.98C41.2427 13.98 41.8658 14.46 41.8658 15.06C41.8658 15.66 41.2427 16.14 40.4639 16.14H35.4795C34.7007 16.14 34.0776 15.66 34.0776 15.06C34.0776 14.46 34.7007 13.98 35.4795 13.98H40.4639Z" fill="#52503B"/>
</g>
<defs>
<clipPath id="clip0_1_118">
<rect width="47.975" height="36" fill="white" transform="translate(0.822205)"/>
</clipPath>
</defs>
</svg>
