<svg width="49" height="36" viewBox="0 0 49 36" fill="none" xmlns="http://www.w3.org/2000/svg">
<path d="M35.7875 23.9806C38.5795 21.7634 40.0154 18.7877 39.7761 15.7536L38.4998 3.20908C38.3402 1.40032 36.2661 0 33.7931 0H15.8442C13.3713 0 11.2972 1.40032 11.1376 3.20908L9.86126 15.7536C9.54217 18.7877 10.9781 21.7634 13.8499 23.9806C16.3229 25.9643 19.7531 27.1896 23.4227 27.423V33.8995H17.2004C16.4026 33.8995 15.7645 34.3663 15.7645 34.9498C15.7645 35.5332 16.4026 36 17.2004 36H32.437C33.2347 36 33.8729 35.5332 33.8729 34.9498C33.8729 34.3663 33.2347 33.8995 32.437 33.8995H26.2147V27.423C29.8843 27.1896 33.3145 25.9643 35.7875 23.9806ZM15.8442 2.04214H33.7931C34.7504 2.04214 35.6279 2.62561 35.7077 3.32577L36.2661 8.57699H13.451L14.0095 3.32577C14.0095 2.62561 14.887 2.04214 15.8442 2.04214ZM12.7331 15.8703L13.2117 10.6775H36.4257L36.9043 15.8703C37.1436 18.3793 36.0268 20.7131 33.7134 22.5802C31.4 24.389 28.209 25.4392 24.7788 25.4392C21.3486 25.4392 18.2374 24.4473 15.8442 22.5802C13.6106 20.7715 12.4938 18.3793 12.7331 15.8703Z" fill="#52503B"/>
</svg>
