<svg width="49" height="36" viewBox="0 0 49 36" fill="none" xmlns="http://www.w3.org/2000/svg">
<g clip-path="url(#clip0_1_109)">
<path d="M44.3977 0C46.4226 0 48.136 1.22927 48.2139 2.75122V33.1902C48.2139 34.7707 46.5005 36 44.4756 36H3.97721C1.87441 36 0.238895 34.7122 0.238895 33.1902V2.75122C0.238895 1.22927 1.87441 0 3.89933 0H44.3977ZM44.3977 1.99024H3.89933C3.35416 1.99024 2.88687 2.34146 2.88687 2.75122V33.1902C2.88687 33.6 3.35416 33.9512 3.89933 33.9512H44.3977C44.9429 33.9512 45.4102 33.6 45.4102 33.1902V2.75122C45.4102 2.34146 44.9429 1.99024 44.3977 1.99024ZM30.1454 29.6195C30.9242 29.6195 31.5473 30.0878 31.5473 30.6732C31.5473 31.2585 30.9242 31.7268 30.1454 31.7268H28.9772C28.1984 31.7268 27.5753 31.2585 27.5753 30.6732C27.5753 30.0878 28.1984 29.6195 28.9772 29.6195H30.1454ZM37.3884 29.6195C38.1672 29.6195 38.7902 30.0878 38.7902 30.6732C38.7902 31.2585 38.1672 31.7268 37.3884 31.7268H36.2201C35.4413 31.7268 34.8183 31.2585 34.8183 30.6732C34.8183 30.0878 35.4413 29.6195 36.2201 29.6195H37.3884ZM14.3354 18.3805C17.6065 18.3805 20.3323 20.4293 20.3323 22.8878C20.3323 25.3463 17.6065 27.3951 14.3354 27.3951C11.0644 27.3951 8.33857 25.3463 8.33857 22.8878C8.33857 20.4293 11.0644 18.3805 14.3354 18.3805ZM33.9616 18.3805C37.3105 18.3805 39.9585 20.4293 39.9585 22.8878C39.9585 25.3463 37.2326 27.3951 33.9616 27.3951C30.6906 27.3951 27.9647 25.3463 27.9647 22.8878C27.9647 20.4293 30.6906 18.3805 33.9616 18.3805ZM14.3354 20.4293C12.5442 20.4293 11.0644 21.5415 11.0644 22.8878C11.0644 24.2341 12.5442 25.3463 14.3354 25.3463C16.1267 25.3463 17.6065 24.2341 17.6065 22.8878C17.6065 21.5415 16.1267 20.4293 14.3354 20.4293ZM33.9616 20.4293C32.1703 20.4293 30.6906 21.5415 30.6906 22.8878C30.6906 24.2341 32.1703 25.3463 33.9616 25.3463C35.7529 25.3463 37.2326 24.2341 37.2326 22.8878C37.2326 21.5415 35.7529 20.4293 33.9616 20.4293ZM14.3354 5.32683C17.6065 5.32683 20.3323 7.31707 20.3323 9.83415C20.3323 12.2927 17.6065 14.3415 14.3354 14.3415C11.0644 14.3415 8.33857 12.2927 8.33857 9.83415C8.33857 7.37561 11.0644 5.32683 14.3354 5.32683ZM33.9616 5.32683C37.3105 5.32683 39.9585 7.31707 39.9585 9.83415C39.9585 12.2927 37.2326 14.3415 33.9616 14.3415C30.6906 14.3415 27.9647 12.2927 27.9647 9.83415C27.9647 7.37561 30.6906 5.32683 33.9616 5.32683ZM14.3354 7.37561C12.5442 7.37561 11.0644 8.4878 11.0644 9.83415C11.0644 11.1805 12.5442 12.2927 14.3354 12.2927C16.1267 12.2927 17.6065 11.1805 17.6065 9.83415C17.6065 8.4878 16.1267 7.37561 14.3354 7.37561ZM33.9616 7.37561C32.1703 7.37561 30.6906 8.4878 30.6906 9.83415C30.6906 11.1805 32.1703 12.2927 33.9616 12.2927C35.7529 12.2927 37.2326 11.1805 37.2326 9.83415C37.2326 8.4878 35.7529 7.37561 33.9616 7.37561Z" fill="#52503B"/>
</g>
<defs>
<clipPath id="clip0_1_109">
<rect width="47.975" height="36" fill="white" transform="translate(0.238895)"/>
</clipPath>
</defs>
</svg>
