<svg width="49" height="36" viewBox="0 0 49 36" fill="none" xmlns="http://www.w3.org/2000/svg">
<g clip-path="url(#clip0_1_127)">
<path d="M39.0363 12.1458L39.2957 12.1564C39.8909 12.2056 40.4114 12.4242 40.7527 12.774L45.2778 17.2861C45.7459 17.743 45.8239 18.3712 45.4338 18.8853C45.1998 19.1708 44.8877 19.3993 44.4976 19.5706L47.9304 23.8542C48.3205 24.3682 48.3205 24.9394 47.8524 25.4534C47.5403 25.9674 46.8382 26.253 46.058 26.253H40.4407V31.2219C40.4407 31.7931 39.8165 32.25 39.0363 32.25C38.2562 32.25 37.632 31.7931 37.632 31.2219V26.253H31.9367C31.2345 26.253 30.5324 25.9103 30.1423 25.4534C29.7522 24.9965 29.7522 24.3682 30.1423 23.9113L33.5751 19.5706C33.185 19.4564 32.8729 19.1708 32.6389 18.8853C32.2488 18.3712 32.3268 17.743 32.7949 17.2861L37.3199 12.774C37.71 12.3742 38.3342 12.1458 39.0363 12.1458ZM13.1343 3.75C13.8365 3.75 14.4606 3.97846 14.8507 4.37826L22.1844 11.5746C22.6525 12.0316 22.7305 12.6598 22.3405 13.1738C21.9504 13.6879 21.2482 14.0306 20.39 14.0306L25.9293 21.1698C26.3194 21.6268 26.3194 22.255 25.9293 22.7119C25.6172 23.1688 24.9151 23.4544 24.1349 23.4544H14.6167V31.1648C14.6167 31.736 13.9925 32.1929 13.2123 32.1929C12.4321 32.1929 11.808 31.736 11.808 31.1648V23.4544H2.3678C1.58762 23.4544 0.885452 23.1117 0.495361 22.5977C0.10527 22.1408 0.183288 21.5125 0.573379 21.0556L6.6588 14.0306H5.95663C5.17645 14.0306 4.47429 13.6879 4.0842 13.1738C3.69411 12.6598 3.77213 12.0316 4.24023 11.5746L11.4179 4.37826C11.808 3.97846 12.4321 3.75 13.1343 3.75ZM38.9583 14.4304L35.4475 17.9143C35.7596 18.0286 36.0717 18.257 36.2277 18.4855C36.6178 18.9424 36.6178 19.5706 36.2277 20.0276L32.9509 24.1969H44.9657L41.689 20.0276C41.2989 19.5706 41.2989 18.9424 41.689 18.4855C41.845 18.257 42.1571 18.0286 42.4691 17.9143L38.9583 14.4304ZM13.1343 6.09168L7.12691 12.0887H7.67303C8.45322 12.0887 9.2334 12.4314 9.54547 12.8883C9.85754 13.3452 9.85754 13.9734 9.46745 14.4304L3.46005 21.4554H22.9646L17.4253 14.3732C17.0352 13.9163 17.0352 13.2881 17.4253 12.8312C17.8154 12.4314 18.4395 12.0887 19.1417 12.0887L13.1343 6.09168Z" fill="#52503B"/>
</g>
<defs>
<clipPath id="clip0_1_127">
<rect width="47.975" height="36" fill="white" transform="translate(0.238895)"/>
</clipPath>
</defs>
</svg>
