<svg width="49" height="36" viewBox="0 0 49 36" fill="none" xmlns="http://www.w3.org/2000/svg">
<g clip-path="url(#clip0_1_163)">
<path d="M31.08 11.3507L31.4339 11.3606C33.0651 11.4526 34.3977 12.1797 35.0519 13.3081L44.1641 29.4851H46.812C47.5909 29.4851 48.2139 29.8881 48.2139 30.4638C48.2139 31.0394 47.5909 31.5 46.812 31.5H1.64076C0.861947 31.5 0.238895 31.097 0.238895 30.5213C0.238895 29.9456 0.861947 29.4851 1.64076 29.4851H3.35416L11.2981 15.0928C11.9211 13.8838 13.4009 13.1354 15.1921 13.1354C16.9834 13.193 18.4632 13.8838 19.1641 15.0928L22.7466 21.3678L27.1859 13.3081C27.8089 12.0991 29.2887 11.3507 31.08 11.3507ZM31.08 13.4232L31.0034 13.4251C30.7079 13.4385 30.0321 13.5384 29.6781 14.1141L24.1485 24.0736L27.2638 29.5426H29.8339V28.161C28.2762 27.6429 27.1859 26.2612 27.1859 24.5341C27.1859 22.3465 28.9772 20.677 31.1579 20.677C33.3385 20.677 35.1298 22.4041 35.1298 24.5341C35.1298 26.2612 34.1173 27.6429 32.5597 28.161V29.5426H41.2046L32.4818 14.1141C32.1703 13.4808 31.3136 13.4232 31.08 13.4232ZM15.1921 15.2079C14.9585 15.2079 14.1797 15.2655 13.7903 15.8987L6.23577 29.5426H24.3043L16.594 15.8987C16.2825 15.2655 15.4258 15.2079 15.1921 15.2079ZM31.1579 22.6343C30.6906 22.6343 29.9117 23.3252 29.9117 24.4765C29.9117 25.6279 30.6127 26.3188 31.1579 26.3188C31.703 26.3188 32.404 25.6279 32.404 24.4765C32.404 23.3252 31.6251 22.6343 31.1579 22.6343ZM41.2824 4.5C44.0083 4.5 46.189 6.11194 46.189 8.12687C46.189 10.1418 43.9304 11.7537 41.2824 11.7537C38.6345 11.7537 36.3759 10.1418 36.3759 8.12687C36.3759 6.11194 38.5566 4.5 41.2824 4.5ZM41.2824 6.57249C40.1142 6.57249 39.1018 7.26333 39.1018 8.18443C39.1018 9.10554 40.0363 9.79638 41.2824 9.79638C42.5285 9.79638 43.4631 9.10554 43.4631 8.18443C43.4631 7.26333 42.4507 6.57249 41.2824 6.57249Z" fill="#52503B"/>
</g>
<defs>
<clipPath id="clip0_1_163">
<rect width="47.975" height="36" fill="white" transform="translate(0.238895)"/>
</clipPath>
</defs>
</svg>
