<svg width="49" height="36" viewBox="0 0 49 36" fill="none" xmlns="http://www.w3.org/2000/svg">
<g clip-path="url(#clip0_1_136)">
<path d="M42.7225 7.65453H34.3891V5.60302C34.3891 3.31705 31.8969 1.5 28.9374 1.5H20.682C17.6446 1.5 15.2303 3.37567 15.2303 5.60302V7.65453H6.89696C3.54806 7.65453 0.822205 9.70604 0.822205 12.2265V17.9707C0.822205 18.5568 1.44526 19.0258 2.22407 19.0258H2.92501V30.1625C2.92501 32.5657 5.4951 34.5 8.68824 34.5H40.9312C44.1243 34.5 46.6944 32.5657 46.6944 30.1625V19.0258H47.3953C48.1742 19.0258 48.7972 18.5568 48.7972 17.9707V12.2265C48.7972 9.70604 46.0714 7.65453 42.7225 7.65453ZM17.9561 5.60302C17.9561 4.48934 19.2022 3.55151 20.682 3.55151H28.8595C30.3393 3.55151 31.5854 4.48934 31.5854 5.60302V7.65453H17.9561V5.60302ZM3.62594 12.2265C3.62594 10.8783 5.10569 9.70604 6.97484 9.70604H42.8003C44.5916 9.70604 46.1492 10.8197 46.1492 12.2265V16.9742H3.62594V12.2265ZM43.9686 30.1039C43.9686 31.3934 42.5667 32.3899 40.9312 32.3899H8.68824C6.97484 32.3899 5.65086 31.3348 5.65086 30.1039V18.9671H15.2303V22.6012C15.2303 23.1874 15.8533 23.6563 16.6321 23.6563C17.411 23.6563 18.034 23.1874 18.034 22.6012V18.9671H31.7412V22.6012C31.7412 23.1874 32.3642 23.6563 33.143 23.6563C33.9218 23.6563 34.5449 23.1874 34.5449 22.6012V18.9671H44.1243V30.1039H43.9686Z" fill="#52503B"/>
</g>
<defs>
<clipPath id="clip0_1_136">
<rect width="47.975" height="36" fill="white" transform="translate(0.822205)"/>
</clipPath>
</defs>
</svg>
