<svg width="49" height="36" viewBox="0 0 49 36" fill="none" xmlns="http://www.w3.org/2000/svg">
<g clip-path="url(#clip0_1_172)">
<path d="M48.6143 20.6722C46.8973 16.577 42.9951 12.1307 37.7662 8.21103C32.6153 4.29132 26.6839 1.42467 21.2208 0.137603C19.2697 -0.330422 17.0845 0.430118 16.3821 1.8927L1.08551 32.0218C0.539205 33.1334 0.851381 34.3034 1.944 35.1225C2.72443 35.7075 3.66096 36 4.67553 36C5.1438 36 5.61206 35.9415 6.08032 35.8245L29.5715 29.0966C29.6496 29.0966 29.6496 29.0966 29.7276 29.0381L32.5372 28.2191L46.1949 24.2994C48.224 23.7729 49.2386 22.1348 48.6143 20.6722ZM5.1438 33.8354C4.51944 34.0109 4.05118 33.7184 3.89509 33.6599C3.73901 33.5429 3.34879 33.2504 3.66096 32.7238L6.93881 26.2885C7.71925 27.5756 9.35817 28.4531 11.3873 28.4531C14.0408 28.4531 16.226 26.815 16.226 24.8259C16.226 22.8368 14.0408 21.1987 11.3873 21.1987C10.6849 21.1987 9.98252 21.3157 9.35817 21.5497L15.4456 9.4981C16.4602 9.96612 17.4747 10.4341 18.4893 11.0192C17.2406 11.6627 16.4602 12.7743 16.4602 13.9443C16.4602 15.9334 18.6454 17.5715 21.2989 17.5715C23.328 17.5715 25.045 16.6355 25.7474 15.3484C29.4935 17.981 33.1616 21.1402 36.2833 25.0014L34.4103 25.5279C34.4103 23.5388 32.225 21.9008 29.5715 21.9008C26.918 21.9008 24.7328 23.5388 24.7328 25.5279C24.7328 26.464 25.2011 27.283 25.9815 27.9266L5.1438 33.8354ZM9.20208 24.8259C9.20208 23.9484 10.1386 23.2463 11.3093 23.2463C12.4799 23.2463 13.4165 23.9484 13.4165 24.8259C13.4165 25.7035 12.4799 26.4055 11.3093 26.4055C10.1386 26.4055 9.20208 25.7035 9.20208 24.8259ZM23.4061 13.8273C23.4061 13.8858 23.4061 13.8858 23.4061 13.9443C23.4061 14.8219 22.4695 15.5239 21.2989 15.5239C20.1282 15.5239 19.1917 14.8219 19.1917 13.9443C19.1917 13.1253 19.9721 12.4818 21.0648 12.3647C21.8452 12.8328 22.6256 13.3008 23.4061 13.8273ZM29.0252 27.049C28.0887 26.8735 27.3863 26.23 27.3863 25.5279C27.3863 24.6504 28.3228 23.9484 29.4935 23.9484C30.6642 23.9484 31.6007 24.6504 31.6007 25.5279C31.6007 25.879 31.4446 26.1715 31.2105 26.4055L29.0252 27.049ZM45.3364 22.3688L38.8588 24.2409C35.0346 19.3851 30.2739 15.5239 25.6693 12.5403C25.5913 12.5403 25.5913 12.4818 25.5133 12.4818C24.4206 11.7797 23.328 11.1362 22.2354 10.5512L22.1574 10.4927C20.1282 9.38109 18.1771 8.38654 16.3821 7.5675L18.8795 2.59473C19.0356 2.24371 19.5039 2.0097 19.9721 2.0097C20.1282 2.0097 20.2063 2.0097 20.3624 2.06821C25.3572 3.23827 30.9763 6.04642 35.8151 9.67361C40.6538 13.3008 44.3999 17.5715 45.9608 21.3157C46.1949 21.7252 45.8827 22.1933 45.3364 22.3688Z" fill="#52503B"/>
</g>
<defs>
<clipPath id="clip0_1_172">
<rect width="47.975" height="36" fill="white" transform="translate(0.822205)"/>
</clipPath>
</defs>
</svg>
