<svg width="65" height="64" viewBox="0 0 65 64" fill="none" xmlns="http://www.w3.org/2000/svg">
<g clip-path="url(#clip0_1_91)">
<path d="M62.5692 29.1512H58.2056H12.6991V8.89217C12.6991 7.52046 13.738 6.46531 15.0887 6.46531H23.0887V9.52526C20.9069 9.84181 19.1406 11.7411 19.1406 14.0624V18.7051C19.1406 19.7603 19.9718 20.6044 21.0108 20.6044H28.3874C29.4263 20.6044 30.2575 19.7603 30.2575 18.7051V14.0624C30.2575 11.9521 28.803 10.1584 26.8289 9.63078V4.56603C26.8289 3.51087 25.9978 2.66675 24.9588 2.66675H15.0887C11.764 2.66675 9.06271 5.41015 9.06271 8.78665V29.0456H7.40037H6.6731H2.30946C1.2705 29.0456 0.439331 29.8898 0.439331 30.9449C0.439331 32.0001 1.2705 32.8442 2.30946 32.8442H4.80297V41.2854C4.80297 47.5109 9.3744 52.6811 15.2965 53.5253L13.0108 58.6955C12.5952 59.6452 13.0108 60.7003 13.9458 61.1224C14.1536 61.2279 14.4653 61.3334 14.6731 61.3334C15.4004 61.3334 16.0237 60.9114 16.3354 60.2783L19.2445 53.7363H47.816C48.0237 53.7363 48.2315 53.7363 48.5432 53.7363L51.4523 60.2783C51.764 61.0169 52.3874 61.3334 53.1147 61.3334C53.3224 61.3334 53.6341 61.3334 53.8419 61.1224C54.777 60.7003 55.1926 59.6452 54.777 58.6955L52.1796 52.8922C56.751 51.0984 60.0757 46.5612 60.0757 41.2854V32.8442H62.5692C63.6082 32.8442 64.4393 32.0001 64.4393 30.9449C64.4393 29.9953 63.6082 29.1512 62.5692 29.1512ZM26.5173 16.9114H22.777V14.0624C22.777 13.5349 23.1926 13.1128 23.7121 13.1128H25.5822C26.1017 13.1128 26.5173 13.5349 26.5173 14.0624V16.9114ZM56.4393 41.2854C56.4393 46.0337 52.5952 50.0432 47.816 50.0432H17.0627C12.3874 50.0432 8.43933 46.1392 8.43933 41.2854V32.8442H56.4393V41.2854Z" fill="#52503B"/>
</g>
<defs>
<clipPath id="clip0_1_91">
<rect width="64" height="64" fill="white" transform="translate(0.439331)"/>
</clipPath>
</defs>
</svg>
