<svg width="65" height="64" viewBox="0 0 65 64" fill="none" xmlns="http://www.w3.org/2000/svg">
<path d="M49.5435 0C52.7302 0 55.403 2.60163 55.5058 5.93171V57.9642C55.5058 61.2943 52.833 64 49.5435 64H16.1346C12.8451 64 10.1724 61.2943 10.1724 57.9642V5.93171C10.1724 2.60163 12.8451 0 16.0318 0H49.5435ZM49.4408 3.53821H16.0318C14.6955 3.53821 13.6675 4.68293 13.6675 5.93171V57.9642C13.6675 59.3171 14.7983 60.3577 16.0318 60.3577H49.4408C50.7771 60.3577 51.8051 59.213 51.8051 57.9642V5.93171C51.8051 4.57886 50.6743 3.53821 49.4408 3.53821ZM43.9925 27.7854C45.8429 27.7854 47.4876 29.3463 47.4876 31.3236C47.4876 33.3008 45.9457 34.8618 43.9925 34.8618C42.0394 34.8618 40.4974 33.3008 40.4974 31.3236C40.4974 29.3463 42.0394 27.7854 43.9925 27.7854Z" fill="#52503B"/>
</svg>
