<svg width="65" height="64" viewBox="0 0 65 64" fill="none" xmlns="http://www.w3.org/2000/svg">
<path d="M54.5993 45.8182V45.7143C54.5993 45.7143 54.5993 45.7143 54.5993 45.6104L48.4731 19.9481V5.61039C48.4731 2.49351 46.0227 0 42.9596 0H21.314C18.2509 0 15.8004 2.49351 15.8004 5.61039V19.9481L9.67432 45.6104C9.67432 45.7143 9.57222 45.9221 9.57222 46.026V62.1299C9.57222 63.1688 10.389 64 11.4101 64C12.4311 64 13.2479 63.1688 13.2479 62.1299V59.2208C13.6563 58.0779 19.7824 55.2727 32.2389 55.2727C44.6953 55.2727 50.8215 58.1818 51.2299 59.2208V62.1299C51.2299 63.1688 52.0467 64 53.0677 64C54.0887 64 54.9056 63.1688 54.9056 62.1299V46.1299C54.7014 46.026 54.5993 45.9221 54.5993 45.8182ZM18.9656 22.026H45.2059L50.5152 44.2597H13.6563L18.9656 22.026ZM19.374 5.61039C19.374 4.57143 20.1908 3.63636 21.314 3.63636H42.9596C43.9806 3.63636 44.8995 4.46753 44.8995 5.61039V18.3896H19.374V5.61039ZM32.1368 51.6364C26.4191 51.6364 17.9446 52.3636 13.1458 54.7532V47.8961H51.0257V54.7532C46.329 52.3636 37.8545 51.6364 32.1368 51.6364Z" fill="#52503B"/>
</svg>
